<svg width="29" height="29" viewBox="0 0 29 29" fill="none" xmlns="http://www.w3.org/2000/svg">
<path d="M12.0807 26.5833V8.45833C12.0807 8.13786 11.9534 7.83052 11.7268 7.60391C11.5002 7.37731 11.1929 7.25 10.8724 7.25H4.83073C4.18979 7.25 3.5751 7.50461 3.12189 7.95783C2.66867 8.41104 2.41406 9.02573 2.41406 9.66667V24.1667C2.41406 24.8076 2.66867 25.4223 3.12189 25.8755C3.5751 26.3287 4.18979 26.5833 4.83073 26.5833H19.3307C19.9717 26.5833 20.5864 26.3287 21.0396 25.8755C21.4928 25.4223 21.7474 24.8076 21.7474 24.1667V18.125C21.7474 17.8045 21.6201 17.4972 21.3935 17.2706C21.1669 17.044 20.8595 16.9167 20.5391 16.9167H2.41406" stroke="white" stroke-width="2" stroke-linecap="round" stroke-linejoin="round"/>
<path d="M25.3724 2.4165H18.1224C17.4551 2.4165 16.9141 2.95749 16.9141 3.62484V10.8748C16.9141 11.5422 17.4551 12.0832 18.1224 12.0832H25.3724C26.0397 12.0832 26.5807 11.5422 26.5807 10.8748V3.62484C26.5807 2.95749 26.0397 2.4165 25.3724 2.4165Z" stroke="white" stroke-width="2" stroke-linecap="round" stroke-linejoin="round"/>
</svg>
