<svg width="50" height="50" viewBox="0 0 50 50" fill="none" xmlns="http://www.w3.org/2000/svg">
<path d="M25 41.668V45.8346" stroke="white" stroke-width="2" stroke-linecap="round" stroke-linejoin="round"/>
<path d="M25 4.16797V8.33464" stroke="white" stroke-width="2" stroke-linecap="round" stroke-linejoin="round"/>
<path d="M35.4219 41.668V45.8346" stroke="white" stroke-width="2" stroke-linecap="round" stroke-linejoin="round"/>
<path d="M35.4219 4.16797V8.33464" stroke="white" stroke-width="2" stroke-linecap="round" stroke-linejoin="round"/>
<path d="M4.17188 25H8.33854" stroke="white" stroke-width="2" stroke-linecap="round" stroke-linejoin="round"/>
<path d="M4.17188 35.418H8.33854" stroke="white" stroke-width="2" stroke-linecap="round" stroke-linejoin="round"/>
<path d="M4.17188 14.582H8.33854" stroke="white" stroke-width="2" stroke-linecap="round" stroke-linejoin="round"/>
<path d="M41.6719 25H45.8385" stroke="white" stroke-width="2" stroke-linecap="round" stroke-linejoin="round"/>
<path d="M41.6719 35.418H45.8385" stroke="white" stroke-width="2" stroke-linecap="round" stroke-linejoin="round"/>
<path d="M41.6719 14.582H45.8385" stroke="white" stroke-width="2" stroke-linecap="round" stroke-linejoin="round"/>
<path d="M14.5781 41.668V45.8346" stroke="white" stroke-width="2" stroke-linecap="round" stroke-linejoin="round"/>
<path d="M14.5781 4.16797V8.33464" stroke="white" stroke-width="2" stroke-linecap="round" stroke-linejoin="round"/>
<path d="M37.4948 8.33203H12.4948C10.1936 8.33203 8.32812 10.1975 8.32812 12.4987V37.4987C8.32812 39.7999 10.1936 41.6654 12.4948 41.6654H37.4948C39.796 41.6654 41.6615 39.7999 41.6615 37.4987V12.4987C41.6615 10.1975 39.796 8.33203 37.4948 8.33203Z" stroke="white" stroke-width="2" stroke-linecap="round" stroke-linejoin="round"/>
<path d="M31.2552 16.668H18.7552C17.6046 16.668 16.6719 17.6007 16.6719 18.7513V31.2513C16.6719 32.4019 17.6046 33.3346 18.7552 33.3346H31.2552C32.4058 33.3346 33.3385 32.4019 33.3385 31.2513V18.7513C33.3385 17.6007 32.4058 16.668 31.2552 16.668Z" stroke="white" stroke-width="2" stroke-linecap="round" stroke-linejoin="round"/>
</svg>
