<svg width="28" height="28" viewBox="0 0 28 28" fill="none" xmlns="http://www.w3.org/2000/svg">
<path d="M16.8948 22.6031L15.7619 23.6986C15.5445 23.9483 15.2765 24.1489 14.9757 24.287C14.6748 24.4251 14.348 24.4976 14.0169 24.4997C13.6859 24.5018 13.3582 24.4334 13.0556 24.2991C12.753 24.1648 12.4825 23.9677 12.2619 23.7208L5.83594 17.5001C4.08594 15.7501 2.33594 13.7668 2.33594 11.0835C2.33596 9.7852 2.7298 8.51748 3.46543 7.44774C4.20106 6.378 5.24387 5.55656 6.45615 5.09193C7.66842 4.62729 8.99312 4.54131 10.2553 4.84535C11.5174 5.14938 12.6577 5.82912 13.5254 6.7948C13.5866 6.86014 13.6604 6.91224 13.7425 6.94786C13.8246 6.98348 13.9131 7.00186 14.0026 7.00186C14.0921 7.00186 14.1806 6.98348 14.2627 6.94786C14.3448 6.91224 14.4187 6.86014 14.4798 6.7948C15.3448 5.82285 16.4853 5.13739 17.7495 4.82966C19.0137 4.52194 20.3417 4.60653 21.5566 5.07219C22.7716 5.53785 23.8159 6.36249 24.5506 7.43635C25.2853 8.5102 25.6755 9.78235 25.6693 11.0835C25.6689 11.6722 25.5828 12.2578 25.4138 12.8218" stroke="#FF9A48" stroke-width="2" stroke-linecap="round" stroke-linejoin="round"/>
<path d="M17.5 17.5H24.5" stroke="#FF9A48" stroke-width="2" stroke-linecap="round" stroke-linejoin="round"/>
<path d="M21 14V21" stroke="#FF9A48" stroke-width="2" stroke-linecap="round" stroke-linejoin="round"/>
</svg>
